# Blender 5.2.2 LTS
# www.blender.org
mtllib sword.mtl
o Cylinder
v -0.003535 -1.000000 -0.027577
v -0.003535 -0.998106 -0.029485
v -0.003535 -0.999746 -0.028531
v -0.003535 -0.999053 -0.029230
v -0.003535 0.998106 -0.029485
v -0.003535 1.001348 -0.030373
v -0.003535 0.999234 -0.029604
v -0.003535 1.000420 -0.029929
v 0.066441 -1.000000 -0.017603
v 0.065365 -0.998106 -0.019665
v 0.068697 -0.998106 -0.018188
v 0.066144 -0.999720 -0.018581
v 0.067368 -0.999720 -0.018038
v 0.066932 -0.999509 -0.018704
v 0.066494 -0.998106 -0.019357
v 0.065754 -0.999034 -0.019327
v 0.066655 -0.999006 -0.019125
v 0.068185 -0.999034 -0.018250
v 0.067712 -0.998106 -0.018817
v 0.067431 -0.999006 -0.018781
v 0.069053 1.001338 -0.020021
v 0.068697 0.998106 -0.018188
v 0.065365 0.998106 -0.019665
v 0.068768 1.000404 -0.019216
v 0.067923 1.000412 -0.019753
v 0.067862 0.999895 -0.019345
v 0.067712 0.998106 -0.018817
v 0.068639 0.999224 -0.018547
v 0.067792 0.999157 -0.019038
v 0.066573 0.999230 -0.019623
v 0.066494 0.998106 -0.019357
v 0.067125 0.999161 -0.019382
v 0.093598 -1.000000 0.004956
v 0.095102 -0.998106 0.003747
v 0.095102 -0.998106 0.006166
v 0.094340 -0.999747 0.004352
v 0.094340 -0.999747 0.005560
v 0.095020 -0.999501 0.004956
v 0.095643 -0.998106 0.004512
v 0.094892 -0.999052 0.003908
v 0.095408 -0.999012 0.004644
v 0.094892 -0.999052 0.006004
v 0.095643 -0.998106 0.005400
v 0.095408 -0.999012 0.005269
v 0.097123 1.001333 0.003305
v 0.097123 1.001333 0.006607
v 0.095102 0.998106 0.006166
v 0.095102 0.998106 0.003747
v 0.097268 1.001054 0.004354
v 0.096290 1.000402 0.003651
v 0.096545 1.000261 0.004514
v 0.096290 1.000402 0.006262
v 0.097268 1.001054 0.005558
v 0.096545 1.000261 0.005398
v 0.095601 0.998106 0.005390
v 0.095552 0.999223 0.006101
v 0.095977 0.999261 0.005341
v 0.095552 0.999224 0.003811
v 0.095601 0.998106 0.004523
v 0.095977 0.999261 0.004571
v 0.066441 -1.000000 0.027516
v 0.068697 -0.998106 0.028101
v 0.065365 -0.998106 0.029577
v 0.067368 -0.999720 0.027951
v 0.066144 -0.999720 0.028494
v 0.066932 -0.999509 0.028616
v 0.067712 -0.998106 0.028730
v 0.068185 -0.999034 0.028162
v 0.067431 -0.999006 0.028694
v 0.065754 -0.999034 0.029240
v 0.066494 -0.998106 0.029270
v 0.066655 -0.999006 0.029037
v 0.069053 1.001338 0.029933
v 0.065365 0.998106 0.029577
v 0.068697 0.998106 0.028101
v 0.067923 1.000412 0.029666
v 0.068768 1.000404 0.029128
v 0.067862 0.999895 0.029258
v 0.066494 0.998106 0.029270
v 0.066573 0.999230 0.029535
v 0.067125 0.999161 0.029294
v 0.068639 0.999224 0.028460
v 0.067712 0.998106 0.028730
v 0.067792 0.999157 0.028951
v -0.003535 -1.000000 0.037490
v -0.003535 -0.998106 0.039398
v -0.003535 -0.999746 0.038444
v -0.003535 -0.999053 0.039142
v -0.003535 1.001348 0.040286
v -0.003535 0.998106 0.039398
v -0.003535 1.000420 0.039842
v -0.003535 0.999234 0.039517
v -0.073510 -1.000000 0.027516
v -0.072435 -0.998106 0.029577
v -0.075767 -0.998106 0.028101
v -0.073213 -0.999720 0.028494
v -0.074438 -0.999720 0.027951
v -0.074001 -0.999509 0.028616
v -0.073563 -0.998106 0.029270
v -0.072824 -0.999034 0.029240
v -0.073725 -0.999006 0.029037
v -0.075255 -0.999034 0.028162
v -0.074782 -0.998106 0.028730
v -0.074500 -0.999006 0.028694
v -0.076123 1.001338 0.029933
v -0.075767 0.998106 0.028101
v -0.072435 0.998106 0.029577
v -0.075838 1.000404 0.029128
v -0.074992 1.000412 0.029666
v -0.074932 0.999895 0.029258
v -0.074782 0.998106 0.028730
v -0.075708 0.999224 0.028460
v -0.074862 0.999157 0.028951
v -0.073643 0.999230 0.029535
v -0.073563 0.998106 0.029270
v -0.074195 0.999161 0.029294
v -0.100667 -1.000000 0.004956
v -0.102172 -0.998106 0.006166
v -0.102172 -0.998106 0.003747
v -0.101410 -0.999747 0.005560
v -0.101410 -0.999747 0.004352
v -0.102089 -0.999501 0.004956
v -0.102713 -0.998106 0.005400
v -0.101962 -0.999052 0.006004
v -0.102478 -0.999012 0.005269
v -0.101962 -0.999052 0.003908
v -0.102713 -0.998106 0.004512
v -0.102478 -0.999012 0.004644
v -0.104192 1.001333 0.006607
v -0.104192 1.001333 0.003305
v -0.102172 0.998106 0.003747
v -0.102172 0.998106 0.006166
v -0.104338 1.001054 0.005558
v -0.103359 1.000402 0.006262
v -0.103614 1.000261 0.005398
v -0.103359 1.000402 0.003651
v -0.104338 1.001054 0.004354
v -0.103614 1.000261 0.004514
v -0.102671 0.998106 0.004523
v -0.102622 0.999224 0.003811
v -0.103046 0.999261 0.004571
v -0.102622 0.999224 0.006101
v -0.102671 0.998106 0.005390
v -0.103046 0.999261 0.005341
v -0.073510 -1.000000 -0.017603
v -0.075767 -0.998106 -0.018188
v -0.072435 -0.998106 -0.019665
v -0.074438 -0.999720 -0.018038
v -0.073213 -0.999720 -0.018581
v -0.074001 -0.999509 -0.018704
v -0.074782 -0.998106 -0.018817
v -0.075255 -0.999034 -0.018250
v -0.074500 -0.999006 -0.018781
v -0.072824 -0.999034 -0.019327
v -0.073563 -0.998106 -0.019357
v -0.073725 -0.999006 -0.019125
v -0.076123 1.001338 -0.020021
v -0.072435 0.998106 -0.019665
v -0.075767 0.998106 -0.018188
v -0.074992 1.000412 -0.019753
v -0.075838 1.000404 -0.019216
v -0.074932 0.999895 -0.019345
v -0.073563 0.998106 -0.019357
v -0.073643 0.999230 -0.019623
v -0.074195 0.999161 -0.019382
v -0.075708 0.999224 -0.018547
v -0.074782 0.998106 -0.018817
v -0.074862 0.999157 -0.019038
v 0.211377 1.109752 -0.069907
v 0.214709 1.109752 -0.068430
v 0.211441 1.106520 -0.069016
v 0.212506 1.109752 -0.069599
v 0.211422 1.108629 -0.069771
v 0.212465 1.108697 -0.069525
v 0.213880 1.108635 -0.068808
v 0.213724 1.109752 -0.069059
v 0.213250 1.108702 -0.069215
v 0.211445 1.107447 -0.069444
v 0.212686 1.107454 -0.069023
v 0.212522 1.107964 -0.069338
v -0.003535 1.106511 -0.099650
v -0.003535 1.109752 -0.100538
v -0.003535 1.107438 -0.100094
v -0.003535 1.108625 -0.100419
v 0.301594 1.109752 0.003747
v 0.301594 1.109752 0.006166
v 0.298510 1.106526 0.006607
v 0.298510 1.106526 0.003305
v 0.302093 1.109752 0.004523
v 0.300819 1.108635 0.003412
v 0.301490 1.108577 0.004447
v 0.300819 1.108635 0.006500
v 0.302093 1.109752 0.005390
v 0.301490 1.108577 0.005465
v 0.298656 1.106247 0.005558
v 0.299693 1.107456 0.006662
v 0.300336 1.107399 0.005525
v 0.299693 1.107456 0.003251
v 0.298656 1.106247 0.004354
v 0.300336 1.107399 0.004388
v 0.214709 1.109752 0.078342
v 0.211377 1.109752 0.079819
v 0.211441 1.106520 0.078928
v 0.213724 1.109752 0.078972
v 0.213880 1.108635 0.078721
v 0.213250 1.108702 0.079127
v 0.211422 1.108629 0.079683
v 0.212506 1.109752 0.079512
v 0.212465 1.108698 0.079437
v 0.212686 1.107454 0.078935
v 0.211445 1.107447 0.079357
v 0.212522 1.107964 0.079251
v -0.003535 1.109752 0.110450
v -0.003535 1.106511 0.109562
v -0.003535 1.108625 0.110331
v -0.003535 1.107438 0.110006
v -0.218447 1.109752 0.079819
v -0.221779 1.109752 0.078342
v -0.218511 1.106520 0.078928
v -0.219575 1.109752 0.079512
v -0.218491 1.108629 0.079683
v -0.219534 1.108697 0.079437
v -0.220950 1.108635 0.078721
v -0.220794 1.109752 0.078972
v -0.220319 1.108702 0.079127
v -0.218515 1.107447 0.079357
v -0.219756 1.107454 0.078935
v -0.219591 1.107964 0.079251
v -0.308663 1.109752 0.006166
v -0.308663 1.109752 0.003747
v -0.305580 1.106526 0.003305
v -0.305580 1.106526 0.006607
v -0.309163 1.109752 0.005390
v -0.307889 1.108635 0.006500
v -0.308560 1.108577 0.005465
v -0.307889 1.108635 0.003413
v -0.309163 1.109752 0.004523
v -0.308560 1.108577 0.004447
v -0.305726 1.106247 0.004354
v -0.306763 1.107456 0.003251
v -0.307405 1.107399 0.004388
v -0.306763 1.107456 0.006662
v -0.305726 1.106247 0.005558
v -0.307405 1.107399 0.005525
v -0.221779 1.109752 -0.068430
v -0.218447 1.109752 -0.069907
v -0.218511 1.106520 -0.069016
v -0.220794 1.109752 -0.069059
v -0.220950 1.108635 -0.068808
v -0.220319 1.108702 -0.069215
v -0.218491 1.108629 -0.069771
v -0.219575 1.109752 -0.069599
v -0.219534 1.108698 -0.069525
v -0.219756 1.107454 -0.069023
v -0.218515 1.107447 -0.069444
v -0.219591 1.107964 -0.069338
v 0.211480 2.459972 -0.069029
v 0.214709 2.456711 -0.068430
v 0.211377 2.456711 -0.069907
v 0.212707 2.459024 -0.069028
v 0.211471 2.459031 -0.069450
v 0.212535 2.458508 -0.069341
v 0.213724 2.456711 -0.069059
v 0.213887 2.457832 -0.068809
v 0.213255 2.457764 -0.069216
v 0.211434 2.457838 -0.069772
v 0.212506 2.456711 -0.069599
v 0.212472 2.457769 -0.069526
v -0.003535 2.456711 -0.100538
v -0.003535 2.459981 -0.099669
v -0.003535 2.457842 -0.100422
v -0.003535 2.459039 -0.100104
v 0.298580 2.459967 0.003319
v 0.298580 2.459967 0.006594
v 0.301594 2.456711 0.006166
v 0.301594 2.456711 0.003747
v 0.298735 2.460250 0.004359
v 0.299735 2.459022 0.003263
v 0.300376 2.459080 0.004392
v 0.299735 2.459022 0.006649
v 0.298735 2.460250 0.005553
v 0.300376 2.459080 0.005520
v 0.302093 2.456711 0.005390
v 0.300836 2.457832 0.006493
v 0.301504 2.457891 0.005463
v 0.300836 2.457832 0.003420
v 0.302093 2.456711 0.004523
v 0.301504 2.457891 0.004450
v 0.211480 2.459972 0.078942
v 0.211377 2.456711 0.079819
v 0.214709 2.456711 0.078342
v 0.211471 2.459031 0.079363
v 0.212707 2.459024 0.078941
v 0.212535 2.458508 0.079254
v 0.212506 2.456711 0.079512
v 0.211434 2.457838 0.079684
v 0.212472 2.457769 0.079439
v 0.213887 2.457832 0.078721
v 0.213724 2.456711 0.078972
v 0.213255 2.457764 0.079128
v -0.003535 2.459981 0.109582
v -0.003535 2.456711 0.110450
v -0.003535 2.459039 0.110016
v -0.003535 2.457842 0.110334
v -0.218550 2.459972 0.078942
v -0.221779 2.456711 0.078342
v -0.218447 2.456711 0.079819
v -0.219777 2.459024 0.078941
v -0.218541 2.459031 0.079363
v -0.219605 2.458508 0.079254
v -0.220794 2.456711 0.078972
v -0.220957 2.457832 0.078721
v -0.220325 2.457764 0.079128
v -0.218503 2.457838 0.079684
v -0.219575 2.456711 0.079512
v -0.219541 2.457769 0.079439
v -0.305650 2.459967 0.006594
v -0.305650 2.459967 0.003319
v -0.308663 2.456711 0.003747
v -0.308663 2.456711 0.006166
v -0.305805 2.460250 0.005553
v -0.306805 2.459022 0.006649
v -0.307445 2.459080 0.005520
v -0.306805 2.459022 0.003263
v -0.305805 2.460250 0.004359
v -0.307445 2.459080 0.004392
v -0.309163 2.456711 0.004523
v -0.307906 2.457832 0.003420
v -0.308574 2.457891 0.004450
v -0.307906 2.457832 0.006493
v -0.309163 2.456711 0.005390
v -0.308574 2.457891 0.005463
v -0.218550 2.459972 -0.069029
v -0.218447 2.456711 -0.069907
v -0.221779 2.456711 -0.068430
v -0.218541 2.459031 -0.069450
v -0.219777 2.459024 -0.069028
v -0.219605 2.458508 -0.069341
v -0.219575 2.456711 -0.069599
v -0.218503 2.457838 -0.069772
v -0.219541 2.457769 -0.069526
v -0.220957 2.457832 -0.068809
v -0.220794 2.456711 -0.069059
v -0.220325 2.457764 -0.069216
v 0.000878 2.621773 0.004956
v 0.003452 2.620406 0.002552
v 0.001516 2.621590 0.003977
v 0.002458 2.621089 0.003098
v -0.003535 2.620397 0.001550
v -0.003535 2.621773 0.004327
v -0.003535 2.621085 0.002240
v -0.003535 2.621589 0.003257
v 0.004365 2.620411 0.003319
v 0.000878 2.621773 0.004956
v 0.004365 2.620411 0.006594
v 0.003276 2.621077 0.003790
v 0.004520 2.620694 0.004359
v 0.003653 2.621160 0.004585
v 0.002002 2.621574 0.005524
v 0.002002 2.621574 0.004389
v 0.002848 2.621443 0.004956
v 0.004520 2.620694 0.005553
v 0.003276 2.621077 0.006122
v 0.003653 2.621160 0.005328
v 0.000878 2.621773 0.004956
v 0.003452 2.620406 0.007360
v 0.001516 2.621590 0.005935
v 0.002458 2.621089 0.006815
v -0.003535 2.621773 0.005585
v -0.003535 2.620397 0.008362
v -0.003535 2.621589 0.006656
v -0.003535 2.621085 0.007672
v -0.007948 2.621773 0.004956
v -0.010522 2.620406 0.007360
v -0.008586 2.621590 0.005935
v -0.009528 2.621089 0.006815
v -0.011435 2.620411 0.006594
v -0.007948 2.621773 0.004956
v -0.011435 2.620411 0.003319
v -0.010346 2.621077 0.006122
v -0.011589 2.620694 0.005553
v -0.010723 2.621160 0.005328
v -0.009071 2.621574 0.004389
v -0.009071 2.621574 0.005524
v -0.009918 2.621444 0.004956
v -0.011589 2.620694 0.004359
v -0.010346 2.621077 0.003790
v -0.010723 2.621160 0.004585
v -0.007948 2.621773 0.004956
v -0.010522 2.620406 0.002552
v -0.008586 2.621590 0.003977
v -0.009528 2.621089 0.003098
vn 0.1528 -0.9262 -0.3447
vn 0.1281 -0.6574 -0.7426
vn 0.2405 -0.2223 -0.9449
vn 0.3999 -0.1613 -0.9023
vn 0.5386 -0.2224 -0.8127
vn 0.4641 -0.6578 -0.5932
vn 0.3562 -0.4768 -0.8036
vn 0.4075 -0.6407 -0.6507
vn 0.4253 -0.4452 -0.7880
vn 0.5142 -0.2264 -0.8273
vn 0.4113 -0.2413 -0.8790
vn 0.2925 -0.2393 -0.9258
vn 0.4186 -0.4935 -0.7624
vn 0.4211 -0.3823 -0.8225
vn 0.3310 -0.9436 -0.0000
vn 0.5926 -0.7117 -0.3773
vn 0.7891 -0.2764 -0.5486
vn 0.9680 -0.2511 -0.0000
vn 0.7890 -0.2764 0.5486
vn 0.5926 -0.7117 0.3773
vn 0.7830 -0.6221 -0.0000
vn 0.6665 -0.6868 -0.2900
vn 0.7386 -0.6741 -0.0000
vn 0.6665 -0.6868 0.2901
vn 0.7840 -0.5055 0.3602
vn 0.8265 -0.2761 0.4905
vn 0.9510 -0.3093 -0.0000
vn 0.8266 -0.2761 -0.4904
vn 0.7840 -0.5055 -0.3602
vn 0.8697 -0.4935 -0.0000
vn 0.1528 -0.9262 0.3447
vn 0.4641 -0.6579 0.5931
vn 0.5386 -0.2224 0.8127
vn 0.3999 -0.1613 0.9023
vn 0.2405 -0.2223 0.9449
vn 0.1281 -0.6574 0.7426
vn 0.3561 -0.4769 0.8036
vn 0.4075 -0.6408 0.6507
vn 0.4187 -0.4935 0.7624
vn 0.2925 -0.2393 0.9258
vn 0.4113 -0.2413 0.8790
vn 0.5142 -0.2264 0.8273
vn 0.4253 -0.4452 0.7880
vn 0.4210 -0.3823 0.8225
vn -0.1528 -0.9262 0.3447
vn -0.1281 -0.6574 0.7426
vn -0.2405 -0.2223 0.9449
vn -0.3999 -0.1613 0.9023
vn -0.5386 -0.2224 0.8127
vn -0.4641 -0.6578 0.5932
vn -0.3562 -0.4768 0.8036
vn -0.4075 -0.6407 0.6507
vn -0.4253 -0.4452 0.7880
vn -0.5142 -0.2264 0.8273
vn -0.4113 -0.2413 0.8790
vn -0.2925 -0.2393 0.9258
vn -0.4186 -0.4935 0.7624
vn -0.4211 -0.3823 0.8225
vn -0.3310 -0.9436 -0.0000
vn -0.5926 -0.7117 0.3773
vn -0.7890 -0.2764 0.5487
vn -0.9680 -0.2511 -0.0000
vn -0.7890 -0.2764 -0.5486
vn -0.5926 -0.7117 -0.3773
vn -0.7830 -0.6221 -0.0000
vn -0.6665 -0.6868 0.2900
vn -0.7386 -0.6741 -0.0000
vn -0.6665 -0.6868 -0.2901
vn -0.7840 -0.5055 -0.3602
vn -0.8266 -0.2761 -0.4905
vn -0.9510 -0.3093 -0.0000
vn -0.8266 -0.2761 0.4905
vn -0.7840 -0.5055 0.3602
vn -0.8697 -0.4935 -0.0000
vn -0.1528 -0.9262 -0.3447
vn -0.4641 -0.6579 -0.5931
vn -0.5386 -0.2224 -0.8127
vn -0.3999 -0.1613 -0.9023
vn -0.2405 -0.2223 -0.9449
vn -0.1281 -0.6574 -0.7426
vn -0.3561 -0.4769 -0.8036
vn -0.4075 -0.6408 -0.6507
vn -0.4187 -0.4935 -0.7624
vn -0.2925 -0.2393 -0.9258
vn -0.4113 -0.2413 -0.8790
vn -0.5142 -0.2264 -0.8273
vn -0.4253 -0.4452 -0.7880
vn -0.4210 -0.3823 -0.8225
vn 0.2486 -0.0928 -0.9642
vn 0.3899 -0.0600 -0.9189
vn 0.5329 -0.1139 -0.8385
vn 0.4834 -0.3421 -0.8058
vn 0.2949 -0.4130 -0.8617
vn 0.2239 -0.2433 -0.9438
vn 0.3607 -0.2036 -0.9102
vn 0.7736 -0.3733 -0.5120
vn 0.8897 -0.4565 -0.0000
vn 0.7736 -0.3733 0.5120
vn 0.6669 -0.6047 0.4355
vn 0.5564 -0.7675 0.3183
vn 0.5658 -0.8245 -0.0000
vn 0.5563 -0.7676 -0.3183
vn 0.6669 -0.6047 -0.4355
vn 0.7141 -0.7001 -0.0000
vn 0.5330 -0.1139 0.8384
vn 0.3900 -0.0600 0.9189
vn 0.2486 -0.0928 0.9642
vn 0.2239 -0.2433 0.9438
vn 0.2949 -0.4130 0.8616
vn 0.4834 -0.3421 0.8058
vn 0.3606 -0.2036 0.9102
vn -0.2486 -0.0928 0.9642
vn -0.3899 -0.0600 0.9189
vn -0.5329 -0.1139 0.8385
vn -0.4834 -0.3421 0.8058
vn -0.2949 -0.4130 0.8617
vn -0.2239 -0.2433 0.9438
vn -0.3607 -0.2036 0.9102
vn -0.7736 -0.3733 0.5120
vn -0.8897 -0.4565 -0.0000
vn -0.7736 -0.3734 -0.5120
vn -0.6669 -0.6046 -0.4355
vn -0.5563 -0.7676 -0.3184
vn -0.5658 -0.8245 -0.0000
vn -0.5563 -0.7676 0.3183
vn -0.6669 -0.6047 0.4355
vn -0.7141 -0.7001 -0.0000
vn -0.5330 -0.1139 -0.8384
vn -0.3900 -0.0600 -0.9189
vn -0.2486 -0.0928 -0.9642
vn -0.2239 -0.2433 -0.9438
vn -0.2949 -0.4130 -0.8616
vn -0.4834 -0.3421 -0.8058
vn -0.3606 -0.2036 -0.9102
vn 0.2980 0.3996 -0.8669
vn 0.4844 0.3311 -0.8098
vn 0.5330 0.1097 -0.8390
vn 0.3903 0.0566 -0.9189
vn 0.2491 0.0893 -0.9643
vn 0.2260 0.2358 -0.9452
vn 0.3616 0.1967 -0.9113
vn 0.5684 0.7550 -0.3269
vn 0.5806 0.8142 0.0001
vn 0.5684 0.7550 0.3268
vn 0.6745 0.5923 0.4407
vn 0.7765 0.3651 0.5136
vn 0.8947 0.4467 -0.0000
vn 0.7764 0.3651 -0.5137
vn 0.6745 0.5922 -0.4409
vn 0.7254 0.6883 0.0002
vn 0.2980 0.3996 0.8669
vn 0.2260 0.2358 0.9452
vn 0.2491 0.0893 0.9644
vn 0.3904 0.0566 0.9189
vn 0.5330 0.1097 0.8390
vn 0.4845 0.3311 0.8097
vn 0.3618 0.1967 0.9113
vn -0.2980 0.3996 0.8669
vn -0.4844 0.3311 0.8098
vn -0.5330 0.1097 0.8390
vn -0.3903 0.0566 0.9189
vn -0.2491 0.0893 0.9643
vn -0.2260 0.2358 0.9452
vn -0.3616 0.1967 0.9113
vn -0.5684 0.7550 0.3269
vn -0.5806 0.8142 -0.0001
vn -0.5684 0.7550 -0.3268
vn -0.6745 0.5922 -0.4409
vn -0.7764 0.3650 -0.5137
vn -0.8947 0.4466 -0.0000
vn -0.7765 0.3650 0.5136
vn -0.6745 0.5921 0.4409
vn -0.7254 0.6883 -0.0001
vn -0.2980 0.3996 -0.8669
vn -0.2260 0.2358 -0.9452
vn -0.2491 0.0893 -0.9644
vn -0.3904 0.0566 -0.9189
vn -0.5330 0.1097 -0.8390
vn -0.4845 0.3311 -0.8097
vn -0.3618 0.1967 -0.9113
vn 0.4002 0.8696 -0.2892
vn 0.2607 0.9443 -0.2008
vn 0.1654 0.9862 -0.0000
vn 0.2608 0.9443 0.2008
vn 0.4001 0.8696 0.2895
vn 0.4735 0.8808 -0.0002
vn 0.3322 0.9432 -0.0003
vn -0.4002 0.8695 0.2894
vn -0.2609 0.9442 0.2010
vn -0.1649 0.9863 -0.0000
vn -0.2608 0.9442 -0.2010
vn -0.4003 0.8696 -0.2892
vn -0.4740 0.8805 -0.0002
vn -0.3321 0.9433 -0.0003
vn 0.1359 -0.2731 -0.9523
vn 0.1003 -0.7061 -0.7009
vn 0.0389 -0.9616 -0.2717
vn 0.1402 -0.1087 -0.9841
vn 0.1361 -0.2613 -0.9556
vn 0.1278 -0.4224 -0.8973
vn 0.5383 -0.0000 -0.8427
vn 0.4052 -0.0000 -0.9142
vn 0.2629 -0.0000 -0.9648
vn 0.6139 -0.2760 -0.7396
vn 0.4516 -0.7065 -0.5449
vn 0.1753 -0.9615 -0.2117
vn 0.6249 -0.2087 -0.7523
vn 0.5703 -0.4511 -0.6865
vn 0.4851 -0.6509 -0.5840
vn 0.8288 -0.0000 0.5595
vn 1.0000 -0.0000 -0.0000
vn 0.8288 -0.0000 -0.5595
vn 0.6139 -0.2760 0.7396
vn 0.4515 -0.7066 0.5449
vn 0.1754 -0.9615 0.2117
vn 0.6249 -0.2087 0.7523
vn 0.5703 -0.4511 0.6865
vn 0.4851 -0.6509 0.5840
vn 0.2629 -0.0000 0.9648
vn 0.4052 -0.0000 0.9142
vn 0.5383 -0.0000 0.8427
vn 0.1359 -0.2731 0.9523
vn 0.1003 -0.7061 0.7009
vn 0.0389 -0.9616 0.2717
vn 0.1402 -0.1087 0.9841
vn 0.1361 -0.2613 0.9556
vn 0.1278 -0.4224 0.8973
vn -0.1359 -0.2731 0.9523
vn -0.1003 -0.7061 0.7009
vn -0.0389 -0.9616 0.2717
vn -0.1402 -0.1087 0.9841
vn -0.1361 -0.2613 0.9556
vn -0.1278 -0.4224 0.8973
vn -0.5383 -0.0000 0.8427
vn -0.4052 -0.0000 0.9142
vn -0.2629 -0.0000 0.9648
vn -0.6139 -0.2760 0.7396
vn -0.4515 -0.7066 0.5449
vn -0.1754 -0.9615 0.2117
vn -0.6249 -0.2087 0.7523
vn -0.5703 -0.4511 0.6865
vn -0.4851 -0.6509 0.5840
vn -0.8288 -0.0000 -0.5595
vn -1.0000 -0.0000 -0.0000
vn -0.8288 -0.0000 0.5595
vn -0.6139 -0.2760 -0.7396
vn -0.4515 -0.7066 -0.5449
vn -0.1753 -0.9615 -0.2117
vn -0.6249 -0.2087 -0.7523
vn -0.5703 -0.4511 -0.6865
vn -0.4851 -0.6509 -0.5840
vn -0.2629 -0.0000 -0.9648
vn -0.4052 -0.0000 -0.9142
vn -0.5383 -0.0000 -0.8427
vn -0.1359 -0.2731 -0.9523
vn -0.1003 -0.7061 -0.7009
vn -0.0389 -0.9616 -0.2717
vn -0.1402 -0.1087 -0.9841
vn -0.1361 -0.2613 -0.9556
vn -0.1278 -0.4224 -0.8973
vn 0.1279 -0.4224 -0.8973
vn 0.1362 -0.2614 -0.9556
vn 0.1403 -0.1088 -0.9841
vn 0.4851 -0.6509 -0.5839
vn 0.5702 -0.4511 -0.6865
vn 0.6250 -0.2086 -0.7522
vn 0.4850 -0.6510 0.5839
vn 0.5704 -0.4510 0.6865
vn 0.1279 -0.4224 0.8973
vn 0.1362 -0.2614 0.9556
vn 0.1403 -0.1088 0.9841
vn -0.1279 -0.4224 0.8973
vn -0.1362 -0.2614 0.9556
vn -0.1403 -0.1088 0.9841
vn -0.5702 -0.4511 0.6865
vn -0.6250 -0.2086 0.7522
vn -0.4850 -0.6510 -0.5839
vn -0.5703 -0.4510 -0.6865
vn -0.1279 -0.4224 -0.8973
vn -0.1362 -0.2614 -0.9556
vn -0.1403 -0.1088 -0.9841
vn -0.4435 -0.8491 -0.2871
vn -0.4630 -0.8864 -0.0000
vn -0.4435 -0.8491 0.2871
vn 0.4435 -0.8491 0.2871
vn 0.4630 -0.8864 -0.0000
vn 0.4435 -0.8491 -0.2871
vn 0.1403 0.1061 -0.9844
vn 0.1365 0.2540 -0.9575
vn 0.1287 0.4097 -0.9031
vn 0.6256 0.2037 -0.7531
vn 0.5738 0.4401 -0.6906
vn 0.4925 0.6371 -0.5929
vn 0.6256 0.2036 0.7531
vn 0.5737 0.4402 0.6907
vn 0.4926 0.6371 0.5928
vn 0.1403 0.1061 0.9844
vn 0.1365 0.2540 0.9575
vn 0.1287 0.4097 0.9031
vn -0.1403 0.1061 0.9844
vn -0.1365 0.2540 0.9575
vn -0.1287 0.4097 0.9031
vn -0.6256 0.2037 0.7531
vn -0.5738 0.4402 0.6907
vn -0.4925 0.6371 0.5929
vn -0.6256 0.2037 -0.7531
vn -0.5738 0.4402 -0.6907
vn -0.4925 0.6371 -0.5929
vn -0.1403 0.1061 -0.9844
vn -0.1365 0.2540 -0.9575
vn -0.1287 0.4097 -0.9031
vn -0.8410 -0.0000 0.5410
vn -0.8410 -0.0000 -0.5410
vn 0.8410 -0.0000 -0.5410
vn 0.8410 -0.0000 0.5410
vn 0.0998 0.7047 -0.7024
vn 0.0628 0.8945 -0.4426
vn 0.0240 0.9853 -0.1693
vn 0.3478 0.8440 -0.4083
vn 0.2436 0.9332 -0.2642
vn 0.1216 0.9870 -0.1055
vn 0.3477 0.8440 0.4083
vn 0.2438 0.9332 0.2642
vn 0.1210 0.9870 0.1055
vn 0.0998 0.7047 0.7024
vn 0.0628 0.8945 0.4426
vn 0.0240 0.9853 0.1693
vn -0.0998 0.7047 0.7024
vn -0.0628 0.8945 0.4426
vn -0.0240 0.9853 0.1693
vn -0.3476 0.8441 0.4083
vn -0.2438 0.9332 0.2642
vn -0.1213 0.9870 0.1055
vn -0.3477 0.8440 -0.4083
vn -0.2438 0.9332 -0.2642
vn -0.1210 0.9870 -0.1055
vn -0.0998 0.7047 -0.7024
vn -0.0628 0.8945 -0.4426
vn -0.0240 0.9853 -0.1693
vn 0.4573 0.8386 -0.2959
vn 0.4788 0.8779 -0.0001
vn 0.4573 0.8386 0.2961
vn -0.4573 0.8386 -0.2959
vn -0.4788 0.8779 -0.0001
vn -0.4573 0.8386 0.2959
vn -0.0000 -1.0000 -0.0000
vn 0.1411 -0.0000 -0.9900
vn -0.1411 -0.0000 -0.9900
vn 0.1182 -0.5463 -0.8292
vn -0.1182 -0.5463 -0.8292
vn 0.6390 -0.0000 -0.7692
vn 0.4044 -0.7742 -0.4868
vn 0.6390 -0.0000 0.7692
vn 0.4044 -0.7742 0.4868
vn 0.1411 -0.0000 0.9900
vn 0.1182 -0.5463 0.8292
vn -0.1411 -0.0000 0.9900
vn -0.1182 -0.5463 0.8292
vn -0.6390 -0.0000 0.7692
vn -0.4044 -0.7742 0.4868
vn -0.6390 -0.0000 -0.7692
vn -0.4044 -0.7742 -0.4868
vn 0.1197 0.5298 -0.8396
vn 0.4148 0.7607 -0.4993
vn -0.1197 0.5298 -0.8396
vn 0.4148 0.7607 0.4993
vn 0.1197 0.5298 0.8396
vn -0.1197 0.5298 0.8396
vn -0.4148 0.7607 0.4993
vn -0.4148 0.7607 -0.4993
vn -0.0000 1.0000 -0.0000
vt 0.917786 0.407204
vt 0.917401 0.420660
vt 0.919212 0.419910
vt 0.921494 0.415389
vt 0.876697 0.500000
vt 0.877557 0.500241
vt 0.875947 0.500248
vt 0.875436 0.500000
vt 0.878314 0.500473
vt 0.876284 0.500473
vt 0.872595 0.500473
vt 0.873550 0.500249
vt 0.868792 0.500473
vt 0.870211 0.500241
vt 0.871820 0.500000
vt 0.875000 1.000000
vt 0.872300 1.000000
vt 0.873692 1.000000
vt 0.875129 1.000000
vt 0.869695 0.999806
vt 0.872858 0.999789
vt 0.868792 0.999527
vt 0.872595 0.999527
vt 0.876284 0.999527
vt 0.875198 0.999790
vt 0.878314 0.999527
vt 0.876212 0.999807
vt 0.982902 0.250000
vt 0.986148 0.259301
vt 0.987824 0.255254
vt 0.986148 0.240699
vt 0.756850 0.500000
vt 0.756396 0.500237
vt 0.753550 0.500247
vt 0.752348 0.500000
vt 0.756208 0.500473
vt 0.753235 0.500473
vt 0.746765 0.500473
vt 0.747896 0.500247
vt 0.743792 0.500473
vt 0.743604 0.500237
vt 0.743150 0.500000
vt 0.756817 1.000000
vt 0.752863 1.000000
vt 0.751880 1.000000
vt 0.755303 1.000000
vt 0.747137 1.000000
vt 0.748120 1.000000
vt 0.743183 1.000000
vt 0.744697 1.000000
vt 0.745061 0.999806
vt 0.747728 0.999815
vt 0.743792 0.999527
vt 0.746682 0.999527
vt 0.753318 0.999527
vt 0.752272 0.999815
vt 0.756208 0.999527
vt 0.754939 0.999806
vt 0.917786 0.092796
vt 0.921494 0.084611
vt 0.920089 0.081219
vt 0.917401 0.079340
vt 0.628180 0.500000
vt 0.629789 0.500241
vt 0.626773 0.500248
vt 0.625557 0.500000
vt 0.631208 0.500473
vt 0.627405 0.500473
vt 0.623716 0.500473
vt 0.624065 0.500249
vt 0.621686 0.500473
vt 0.622443 0.500241
vt 0.623303 0.500000
vt 0.625000 1.000000
vt 0.624994 1.000000
vt 0.625560 1.000000
vt 0.626848 1.000000
vt 0.623788 0.999808
vt 0.624802 0.999790
vt 0.621686 0.999527
vt 0.623716 0.999527
vt 0.627405 0.999527
vt 0.627142 0.999789
vt 0.631208 0.999527
vt 0.630305 0.999806
vt 0.582214 0.092796
vt 0.582599 0.079340
vt 0.580788 0.080090
vt 0.578506 0.084611
vt 0.376697 0.500000
vt 0.377557 0.500241
vt 0.375947 0.500248
vt 0.375436 0.500000
vt 0.378314 0.500473
vt 0.376284 0.500473
vt 0.372595 0.500473
vt 0.373550 0.500249
vt 0.368792 0.500473
vt 0.370211 0.500241
vt 0.371820 0.500000
vt 0.375000 1.000000
vt 0.372300 1.000000
vt 0.373692 1.000000
vt 0.375129 1.000000
vt 0.369695 0.999806
vt 0.372858 0.999789
vt 0.368792 0.999527
vt 0.372595 0.999527
vt 0.376284 0.999527
vt 0.375198 0.999790
vt 0.378314 0.999527
vt 0.376212 0.999807
vt 0.517098 0.250000
vt 0.513852 0.240699
vt 0.512176 0.244746
vt 0.513852 0.259301
vt 0.256850 0.500000
vt 0.256396 0.500237
vt 0.253549 0.500247
vt 0.252348 0.500000
vt 0.256208 0.500473
vt 0.253235 0.500473
vt 0.246765 0.500473
vt 0.247896 0.500247
vt 0.243792 0.500473
vt 0.243604 0.500237
vt 0.243150 0.500000
vt 0.256817 1.000000
vt 0.252863 1.000000
vt 0.251880 1.000000
vt 0.255303 1.000000
vt 0.247137 1.000000
vt 0.248120 1.000000
vt 0.243183 1.000000
vt 0.244697 1.000000
vt 0.245061 0.999806
vt 0.247728 0.999815
vt 0.243792 0.999527
vt 0.246682 0.999527
vt 0.253318 0.999527
vt 0.252272 0.999815
vt 0.256208 0.999527
vt 0.254939 0.999806
vt 0.582214 0.407204
vt 0.578506 0.415389
vt 0.579911 0.418781
vt 0.582599 0.420660
vt 0.128180 0.500000
vt 0.129789 0.500241
vt 0.126773 0.500248
vt 0.125557 0.500000
vt 0.131208 0.500473
vt 0.127405 0.500473
vt 0.123716 0.500473
vt 0.124065 0.500249
vt 0.121686 0.500473
vt 0.122443 0.500241
vt 0.123303 0.500000
vt 0.125000 1.000000
vt 0.124994 1.000000
vt 0.125560 1.000000
vt 0.126848 1.000000
vt 0.123788 0.999808
vt 0.124802 0.999790
vt 0.121686 0.999527
vt 0.123716 0.999527
vt 0.127405 0.999527
vt 0.127142 0.999789
vt 0.131208 0.999527
vt 0.130305 0.999806
vt 0.876082 1.000000
vt 0.875419 1.000000
vt 0.875436 1.000000
vt 0.876046 1.000000
vt 0.874215 1.000000
vt 0.874711 1.000000
vt 0.872973 1.000000
vt 0.873914 1.000000
vt 0.874652 1.000000
vt 0.875315 1.000000
vt 0.875670 1.000000
vt 0.752027 1.000000
vt 0.751083 1.000000
vt 0.751631 1.000000
vt 0.752893 1.000000
vt 0.748917 1.000000
vt 0.748369 1.000000
vt 0.747973 1.000000
vt 0.747107 1.000000
vt 0.746920 1.000000
vt 0.748630 1.000000
vt 0.747158 1.000000
vt 0.748752 1.000000
vt 0.751248 1.000000
vt 0.751370 1.000000
vt 0.752842 1.000000
vt 0.753080 1.000000
vt 0.627027 1.000000
vt 0.625785 1.000000
vt 0.625289 1.000000
vt 0.626086 1.000000
vt 0.624581 1.000000
vt 0.624564 1.000000
vt 0.623918 1.000000
vt 0.623954 1.000000
vt 0.624195 1.000000
vt 0.624797 1.000000
vt 0.625512 1.000000
vt 0.376082 1.000000
vt 0.375419 1.000000
vt 0.375436 1.000000
vt 0.376046 1.000000
vt 0.374215 1.000000
vt 0.374711 1.000000
vt 0.372973 1.000000
vt 0.373914 1.000000
vt 0.374652 1.000000
vt 0.375315 1.000000
vt 0.375670 1.000000
vt 0.252027 1.000000
vt 0.251083 1.000000
vt 0.251631 1.000000
vt 0.252893 1.000000
vt 0.248917 1.000000
vt 0.248369 1.000000
vt 0.247973 1.000000
vt 0.247107 1.000000
vt 0.246920 1.000000
vt 0.248630 1.000000
vt 0.247158 1.000000
vt 0.248752 1.000000
vt 0.251248 1.000000
vt 0.251370 1.000000
vt 0.252842 1.000000
vt 0.253080 1.000000
vt 0.127027 1.000000
vt 0.125785 1.000000
vt 0.125289 1.000000
vt 0.126086 1.000000
vt 0.124581 1.000000
vt 0.124564 1.000000
vt 0.123918 1.000000
vt 0.123954 1.000000
vt 0.124195 1.000000
vt 0.124797 1.000000
vt 0.125512 1.000000
vt 0.874482 1.000000
vt 0.875207 1.000000
vt 0.875812 1.000000
vt 0.873909 1.000000
vt 0.874707 1.000000
vt 0.872973 1.000000
vt 0.875419 1.000000
vt 0.875432 1.000000
vt 0.876082 1.000000
vt 0.876039 1.000000
vt 0.752829 1.000000
vt 0.751255 1.000000
vt 0.751378 1.000000
vt 0.753066 1.000000
vt 0.748745 1.000000
vt 0.748621 1.000000
vt 0.747171 1.000000
vt 0.746934 1.000000
vt 0.747126 1.000000
vt 0.748382 1.000000
vt 0.747973 1.000000
vt 0.748917 1.000000
vt 0.751618 1.000000
vt 0.752027 1.000000
vt 0.752874 1.000000
vt 0.624328 1.000000
vt 0.624686 1.000000
vt 0.625353 1.000000
vt 0.623961 1.000000
vt 0.624568 1.000000
vt 0.623918 1.000000
vt 0.624581 1.000000
vt 0.625785 1.000000
vt 0.625293 1.000000
vt 0.627027 1.000000
vt 0.626091 1.000000
vt 0.374482 1.000000
vt 0.375207 1.000000
vt 0.375812 1.000000
vt 0.373909 1.000000
vt 0.374707 1.000000
vt 0.372973 1.000000
vt 0.374215 1.000000
vt 0.375432 1.000000
vt 0.376082 1.000000
vt 0.376039 1.000000
vt 0.252829 1.000000
vt 0.251255 1.000000
vt 0.251378 1.000000
vt 0.253066 1.000000
vt 0.248745 1.000000
vt 0.248621 1.000000
vt 0.247171 1.000000
vt 0.246934 1.000000
vt 0.247126 1.000000
vt 0.248382 1.000000
vt 0.247973 1.000000
vt 0.248917 1.000000
vt 0.251618 1.000000
vt 0.252027 1.000000
vt 0.252874 1.000000
vt 0.124328 1.000000
vt 0.124686 1.000000
vt 0.125353 1.000000
vt 0.123961 1.000000
vt 0.124568 1.000000
vt 0.123918 1.000000
vt 0.124581 1.000000
vt 0.125785 1.000000
vt 0.125293 1.000000
vt 0.126091 1.000000
vt 0.831034 1.000000
vt 0.802510 1.000000
vt 0.766942 1.000000
vt 0.785210 1.000000
vt 0.460471 0.321290
vt 0.430213 0.303667
vt 0.457761 0.250001
vt 0.480472 0.273002
vt 0.393646 0.250000
vt 0.430213 0.196333
vt 0.460471 0.178710
vt 0.480473 0.226999
vt 0.668966 1.000000
vt 0.714794 1.000000
vt 0.733058 1.000000
vt 0.697490 1.000000
vt 0.331034 1.000000
vt 0.302510 1.000000
vt 0.266942 1.000000
vt 0.285210 1.000000
vt 0.039529 0.178710
vt 0.069787 0.196333
vt 0.042239 0.249999
vt 0.019528 0.226998
vt 0.106354 0.250000
vt 0.069787 0.303667
vt 0.039529 0.321289
vt 0.019527 0.273001
vt 0.168966 1.000000
vt 0.214784 1.000000
vt 0.233058 1.000000
vt 0.197490 1.000000
vt 1.000000 0.500473
vt 0.999937 0.500237
vt 0.999763 0.500000
vt 0.750000 0.489867
vt 0.750000 0.476704
vt 1.000000 0.999527
vt 1.000030 0.999808
vt 1.000021 1.000000
vt 1.000000 1.000000
vt 0.500000 0.500473
vt 0.500000 0.500237
vt 0.500000 0.500000
vt 0.750000 0.010133
vt 0.750000 0.023296
vt 0.500000 0.999527
vt 0.500000 0.999808
vt 0.500000 1.000000
vt 0.000000 0.500473
vt 0.000063 0.500237
vt 0.000237 0.500000
vt 0.000000 0.999527
vt -0.000030 0.999808
vt -0.000021 1.000000
vt 0.000000 1.000000
vt 0.999987 1.000000
vt 0.999990 1.000000
vt 0.000013 1.000000
vt 0.000010 1.000000
vt 0.999991 1.000000
vt 0.999986 1.000000
vt 0.500000 1.000000
vt 0.000009 1.000000
vt 0.000014 1.000000
vt 0.862616 1.000000
vt 0.426670 0.402893
vt 0.250000 0.490000
vt 0.250000 0.410759
vt 0.414405 0.342590
vt 0.250000 0.309500
vt 0.393646 0.250000
vt 0.637384 1.000000
vt 0.426670 0.097107
vt 0.414405 0.157410
vt 0.250000 0.010000
vt 0.250000 0.089241
vt 0.250000 0.190500
vt 0.362616 1.000000
vt 0.073330 0.097107
vt 0.085595 0.157410
vt 0.106354 0.250000
vt 0.137384 1.000000
vt 0.073330 0.402893
vt 0.085595 0.342590
vt 0.106354 0.250000
s 0
f 9/1/1 12/2/1 14/3/1 13/4/1
f 12/5/2 16/6/2 17/7/2 14/8/2
f 10/9/3 15/10/3 17/7/3 16/6/3
f 15/10/4 19/11/4 20/12/4 17/7/4
f 11/13/5 18/14/5 20/12/5 19/11/5
f 18/14/6 13/15/6 14/8/6 20/12/6
f 14/8/7 17/7/7 20/12/7
f 21/16/8 24/17/8 26/18/8 25/19/8
f 24/17/9 28/20/9 29/21/9 26/18/9
f 22/22/10 27/23/10 29/21/10 28/20/10
f 27/23/11 31/24/11 32/25/11 29/21/11
f 23/26/12 30/27/12 32/25/12 31/24/12
f 30/27/13 25/19/13 26/18/13 32/25/13
f 26/18/14 29/21/14 32/25/14
f 33/28/15 36/29/15 38/30/15 37/31/15
f 36/32/16 40/33/16 41/34/16 38/35/16
f 34/36/17 39/37/17 41/34/17 40/33/17
f 39/37/18 43/38/18 44/39/18 41/34/18
f 35/40/19 42/41/19 44/39/19 43/38/19
f 42/41/20 37/42/20 38/35/20 44/39/20
f 38/35/21 41/34/21 44/39/21
f 45/43/22 49/44/22 51/45/22 50/46/22
f 49/44/23 53/47/23 54/48/23 51/45/23
f 46/49/24 52/50/24 54/48/24 53/47/24
f 52/50/25 56/51/25 57/52/25 54/48/25
f 47/53/26 55/54/26 57/52/26 56/51/26
f 55/54/27 59/55/27 60/56/27 57/52/27
f 48/57/28 58/58/28 60/56/28 59/55/28
f 58/58/29 50/46/29 51/45/29 60/56/29
f 51/45/30 54/48/30 57/52/30 60/56/30
f 61/59/31 64/60/31 66/61/31 65/62/31
f 64/63/32 68/64/32 69/65/32 66/66/32
f 62/67/33 67/68/33 69/65/33 68/64/33
f 67/68/34 71/69/34 72/70/34 69/65/34
f 63/71/35 70/72/35 72/70/35 71/69/35
f 70/72/36 65/73/36 66/66/36 72/70/36
f 66/66/37 69/65/37 72/70/37
f 73/74/38 76/75/38 78/76/38 77/77/38
f 76/75/39 80/78/39 81/79/39 78/76/39
f 74/80/40 79/81/40 81/79/40 80/78/40
f 79/81/41 83/82/41 84/83/41 81/79/41
f 75/84/42 82/85/42 84/83/42 83/82/42
f 82/85/43 77/77/43 78/76/43 84/83/43
f 78/76/44 81/79/44 84/83/44
f 93/86/45 96/87/45 98/88/45 97/89/45
f 96/90/46 100/91/46 101/92/46 98/93/46
f 94/94/47 99/95/47 101/92/47 100/91/47
f 99/95/48 103/96/48 104/97/48 101/92/48
f 95/98/49 102/99/49 104/97/49 103/96/49
f 102/99/50 97/100/50 98/93/50 104/97/50
f 98/93/51 101/92/51 104/97/51
f 105/101/52 108/102/52 110/103/52 109/104/52
f 108/102/53 112/105/53 113/106/53 110/103/53
f 106/107/54 111/108/54 113/106/54 112/105/54
f 111/108/55 115/109/55 116/110/55 113/106/55
f 107/111/56 114/112/56 116/110/56 115/109/56
f 114/112/57 109/104/57 110/103/57 116/110/57
f 110/103/58 113/106/58 116/110/58
f 117/113/59 120/114/59 122/115/59 121/116/59
f 120/117/60 124/118/60 125/119/60 122/120/60
f 118/121/61 123/122/61 125/119/61 124/118/61
f 123/122/62 127/123/62 128/124/62 125/119/62
f 119/125/63 126/126/63 128/124/63 127/123/63
f 126/126/64 121/127/64 122/120/64 128/124/64
f 122/120/65 125/119/65 128/124/65
f 129/128/66 133/129/66 135/130/66 134/131/66
f 133/129/67 137/132/67 138/133/67 135/130/67
f 130/134/68 136/135/68 138/133/68 137/132/68
f 136/135/69 140/136/69 141/137/69 138/133/69
f 131/138/70 139/139/70 141/137/70 140/136/70
f 139/139/71 143/140/71 144/141/71 141/137/71
f 132/142/72 142/143/72 144/141/72 143/140/72
f 142/143/73 134/131/73 135/130/73 144/141/73
f 135/130/74 138/133/74 141/137/74 144/141/74
f 145/144/75 148/145/75 150/146/75 149/147/75
f 148/148/76 152/149/76 153/150/76 150/151/76
f 146/152/77 151/153/77 153/150/77 152/149/77
f 151/153/78 155/154/78 156/155/78 153/150/78
f 147/156/79 154/157/79 156/155/79 155/154/79
f 154/157/80 149/158/80 150/151/80 156/155/80
f 150/151/81 153/150/81 156/155/81
f 157/159/82 160/160/82 162/161/82 161/162/82
f 160/160/83 164/163/83 165/164/83 162/161/83
f 158/165/84 163/166/84 165/164/84 164/163/84
f 163/166/85 167/167/85 168/168/85 165/164/85
f 159/169/86 166/170/86 168/168/86 167/167/86
f 166/170/87 161/162/87 162/161/87 168/168/87
f 162/161/88 165/164/88 168/168/88
f 169/171/89 172/172/89 174/173/89 173/174/89
f 172/172/90 176/175/90 177/176/90 174/173/90
f 170/177/91 175/178/91 177/176/91 176/175/91
f 175/178/92 179/179/92 180/180/92 177/176/92
f 171/16/93 178/181/93 180/180/93 179/179/93
f 178/181/94 173/174/94 174/173/94 180/180/94
f 174/173/95 177/176/95 180/180/95
f 185/182/96 189/183/96 191/184/96 190/185/96
f 189/183/97 193/186/97 194/187/97 191/184/97
f 186/188/98 192/189/98 194/187/98 193/186/98
f 192/189/99 196/190/99 197/191/99 194/187/99
f 187/192/100 195/193/100 197/191/100 196/190/100
f 195/193/101 199/194/101 200/195/101 197/191/101
f 188/196/102 198/197/102 200/195/102 199/194/102
f 198/197/103 190/185/103 191/184/103 200/195/103
f 191/184/104 194/187/104 197/191/104 200/195/104
f 201/198/105 204/199/105 206/200/105 205/201/105
f 204/199/106 208/202/106 209/203/106 206/200/106
f 202/204/107 207/205/107 209/203/107 208/202/107
f 207/205/108 211/206/108 212/207/108 209/203/108
f 203/74/109 210/208/109 212/207/109 211/206/109
f 210/208/110 205/201/110 206/200/110 212/207/110
f 206/200/111 209/203/111 212/207/111
f 217/209/112 220/210/112 222/211/112 221/212/112
f 220/210/113 224/213/113 225/214/113 222/211/113
f 218/215/114 223/216/114 225/214/114 224/213/114
f 223/216/115 227/217/115 228/218/115 225/214/115
f 219/101/116 226/219/116 228/218/116 227/217/116
f 226/219/117 221/212/117 222/211/117 228/218/117
f 222/211/118 225/214/118 228/218/118
f 229/220/119 233/221/119 235/222/119 234/223/119
f 233/221/120 237/224/120 238/225/120 235/222/120
f 230/226/121 236/227/121 238/225/121 237/224/121
f 236/227/122 240/228/122 241/229/122 238/225/122
f 231/230/123 239/231/123 241/229/123 240/228/123
f 239/231/124 243/232/124 244/233/124 241/229/124
f 232/234/125 242/235/125 244/233/125 243/232/125
f 242/235/126 234/223/126 235/222/126 244/233/126
f 235/222/127 238/225/127 241/229/127 244/233/127
f 245/236/128 248/237/128 250/238/128 249/239/128
f 248/237/129 252/240/129 253/241/129 250/238/129
f 246/242/130 251/243/130 253/241/130 252/240/130
f 251/243/131 255/244/131 256/245/131 253/241/131
f 247/159/132 254/246/132 256/245/132 255/244/132
f 254/246/133 249/239/133 250/238/133 256/245/133
f 250/238/134 253/241/134 256/245/134
f 257/16/135 260/247/135 262/248/135 261/249/135
f 260/247/136 264/250/136 265/251/136 262/248/136
f 258/252/137 263/175/137 265/251/137 264/250/137
f 263/175/138 267/253/138 268/254/138 265/251/138
f 259/255/139 266/256/139 268/254/139 267/253/139
f 266/256/140 261/249/140 262/248/140 268/254/140
f 262/248/141 265/251/141 268/254/141
f 273/257/142 277/258/142 279/259/142 278/260/142
f 277/258/143 281/261/143 282/262/143 279/259/143
f 274/263/144 280/264/144 282/262/144 281/261/144
f 280/264/145 284/265/145 285/266/145 282/262/145
f 275/267/146 283/268/146 285/266/146 284/265/146
f 283/268/147 287/183/147 288/269/147 285/266/147
f 276/270/148 286/271/148 288/269/148 287/183/148
f 286/271/149 278/260/149 279/259/149 288/269/149
f 279/259/150 282/262/150 285/266/150 288/269/150
f 289/74/151 292/272/151 294/273/151 293/274/151
f 292/272/152 296/275/152 297/276/152 294/273/152
f 290/277/153 295/278/153 297/276/153 296/275/153
f 295/278/154 299/279/154 300/280/154 297/276/154
f 291/281/155 298/282/155 300/280/155 299/279/155
f 298/282/156 293/274/156 294/273/156 300/280/156
f 294/273/157 297/276/157 300/280/157
f 305/101/158 308/283/158 310/284/158 309/285/158
f 308/283/159 312/286/159 313/287/159 310/284/159
f 306/288/160 311/289/160 313/287/160 312/286/160
f 311/289/161 315/210/161 316/290/161 313/287/161
f 307/291/162 314/292/162 316/290/162 315/210/162
f 314/292/163 309/285/163 310/284/163 316/290/163
f 310/284/164 313/287/164 316/290/164
f 317/293/165 321/294/165 323/295/165 322/296/165
f 321/294/166 325/297/166 326/298/166 323/295/166
f 318/299/167 324/300/167 326/298/167 325/297/167
f 324/300/168 328/301/168 329/302/168 326/298/168
f 319/303/169 327/304/169 329/302/169 328/301/169
f 327/304/170 331/221/170 332/305/170 329/302/170
f 320/306/171 330/307/171 332/305/171 331/221/171
f 330/307/172 322/296/172 323/295/172 332/305/172
f 323/295/173 326/298/173 329/302/173 332/305/173
f 333/159/174 336/308/174 338/309/174 337/310/174
f 336/308/175 340/311/175 341/312/175 338/309/175
f 334/313/176 339/314/176 341/312/176 340/311/176
f 339/314/177 343/315/177 344/316/177 341/312/177
f 335/236/178 342/317/178 344/316/178 343/315/178
f 342/317/179 337/310/179 338/309/179 344/316/179
f 338/309/180 341/312/180 344/316/180
f 353/318/181 356/319/181 358/320/181 357/321/181
f 356/322/182 360/323/182 361/324/182 358/325/182
f 354/326/183 359/327/183 361/324/183 360/323/183
f 359/327/184 363/328/184 364/329/184 361/324/184
f 355/330/185 362/331/185 364/332/185 363/333/185
f 362/331/186 357/321/186 358/320/186 364/332/186
f 358/325/187 361/324/187 364/329/187
f 377/334/188 380/335/188 382/336/188 381/337/188
f 380/338/189 384/339/189 385/340/189 382/341/189
f 378/342/190 383/343/190 385/340/190 384/339/190
f 383/343/191 387/344/191 388/345/191 385/340/191
f 379/346/192 386/347/192 388/348/192 387/349/192
f 386/347/193 381/337/193 382/336/193 388/348/193
f 382/341/194 385/340/194 388/345/194
f 2/350/195 10/9/195 16/6/195 4/351/195
f 4/351/196 16/6/196 12/5/196 3/352/196
f 3/353/197 12/2/197 9/1/197 1/354/197
f 23/26/198 5/355/198 7/356/198 30/27/198
f 30/27/199 7/356/199 8/357/199 25/19/199
f 25/19/200 8/357/200 6/358/200 21/16/200
f 22/22/201 11/13/201 19/11/201 27/23/201
f 27/23/202 19/11/202 15/10/202 31/24/202
f 31/24/203 15/10/203 10/9/203 23/26/203
f 11/13/204 34/36/204 40/33/204 18/14/204
f 18/14/205 40/33/205 36/32/205 13/15/205
f 13/4/206 36/29/206 33/28/206 9/1/206
f 48/57/207 22/22/207 28/20/207 58/58/207
f 58/58/208 28/20/208 24/17/208 50/46/208
f 50/46/209 24/17/209 21/16/209 45/43/209
f 47/53/210 35/40/210 43/38/210 55/54/210
f 55/54/211 43/38/211 39/37/211 59/55/211
f 59/55/212 39/37/212 34/36/212 48/57/212
f 35/40/213 62/67/213 68/64/213 42/41/213
f 42/41/214 68/64/214 64/63/214 37/42/214
f 37/31/215 64/60/215 61/59/215 33/28/215
f 75/84/216 47/53/216 56/51/216 82/85/216
f 82/85/217 56/51/217 52/50/217 77/77/217
f 77/77/218 52/50/218 46/49/218 73/74/218
f 74/80/219 63/71/219 71/69/219 79/81/219
f 79/81/220 71/69/220 67/68/220 83/82/220
f 83/82/221 67/68/221 62/67/221 75/84/221
f 63/71/222 86/359/222 88/360/222 70/72/222
f 70/72/223 88/360/223 87/361/223 65/73/223
f 65/62/224 87/362/224 85/363/224 61/59/224
f 90/364/225 74/80/225 80/78/225 92/365/225
f 92/365/226 80/78/226 76/75/226 91/366/226
f 91/366/227 76/75/227 73/74/227 89/366/227
f 86/359/228 94/94/228 100/91/228 88/360/228
f 88/360/229 100/91/229 96/90/229 87/361/229
f 87/362/230 96/87/230 93/86/230 85/363/230
f 107/111/231 90/364/231 92/365/231 114/112/231
f 114/112/232 92/365/232 91/366/232 109/104/232
f 109/104/233 91/366/233 89/366/233 105/101/233
f 106/107/234 95/98/234 103/96/234 111/108/234
f 111/108/235 103/96/235 99/95/235 115/109/235
f 115/109/236 99/95/236 94/94/236 107/111/236
f 95/98/237 118/121/237 124/118/237 102/99/237
f 102/99/238 124/118/238 120/117/238 97/100/238
f 97/89/239 120/114/239 117/113/239 93/86/239
f 132/142/240 106/107/240 112/105/240 142/143/240
f 142/143/241 112/105/241 108/102/241 134/131/241
f 134/131/242 108/102/242 105/101/242 129/128/242
f 131/138/243 119/125/243 127/123/243 139/139/243
f 139/139/244 127/123/244 123/122/244 143/140/244
f 143/140/245 123/122/245 118/121/245 132/142/245
f 119/125/246 146/152/246 152/149/246 126/126/246
f 126/126/247 152/149/247 148/148/247 121/127/247
f 121/116/248 148/145/248 145/144/248 117/113/248
f 159/169/249 131/138/249 140/136/249 166/170/249
f 166/170/250 140/136/250 136/135/250 161/162/250
f 161/162/251 136/135/251 130/134/251 157/159/251
f 158/165/252 147/156/252 155/154/252 163/166/252
f 163/166/253 155/154/253 151/153/253 167/167/253
f 167/167/254 151/153/254 146/152/254 159/169/254
f 147/156/255 2/367/255 4/368/255 154/157/255
f 154/157/256 4/368/256 3/369/256 149/158/256
f 149/147/257 3/353/257 1/354/257 145/144/257
f 5/370/258 158/165/258 164/163/258 7/371/258
f 7/371/259 164/163/259 160/160/259 8/372/259
f 8/372/260 160/160/260 157/159/260 6/373/260
f 171/16/261 181/358/261 183/374/261 178/181/261
f 178/181/262 183/374/262 184/375/262 173/174/262
f 173/174/263 184/375/263 182/358/263 169/171/263
f 188/196/264 171/16/264 179/179/264 198/197/264
f 198/197/265 179/179/265 175/178/265 190/185/265
f 190/185/266 175/178/266 170/177/266 185/182/266
f 203/74/267 187/192/267 196/190/267 210/208/267
f 210/208/268 196/190/268 192/189/268 205/201/268
f 205/201/216 192/189/216 186/188/216 201/198/216
f 214/366/269 203/74/269 211/206/269 216/366/269
f 216/366/270 211/206/270 207/205/270 215/366/270
f 215/366/271 207/205/271 202/204/271 213/366/271
f 219/101/272 214/366/272 216/366/272 226/219/272
f 226/219/273 216/366/273 215/366/273 221/212/273
f 221/212/274 215/366/274 213/366/274 217/209/274
f 232/234/242 219/101/242 227/217/242 242/235/242
f 242/235/275 227/217/275 223/216/275 234/223/275
f 234/223/276 223/216/276 218/215/276 229/220/276
f 247/159/277 231/230/277 240/228/277 254/246/277
f 254/246/278 240/228/278 236/227/278 249/239/278
f 249/239/249 236/227/249 230/226/249 245/236/249
f 181/373/279 247/159/279 255/244/279 183/376/279
f 183/376/280 255/244/280 251/243/280 184/377/280
f 184/377/281 251/243/281 246/242/281 182/373/281
f 231/230/282 130/134/282 137/132/282 239/231/282
f 239/231/283 137/132/283 133/129/283 243/232/283
f 243/232/284 133/129/284 129/128/284 232/234/284
f 187/192/285 46/49/285 53/47/285 195/193/285
f 195/193/286 53/47/286 49/44/286 199/194/286
f 199/194/287 49/44/287 45/43/287 188/196/287
f 259/255/288 269/358/288 271/378/288 266/256/288
f 266/256/289 271/378/289 272/379/289 261/249/289
f 261/249/290 272/379/290 270/358/290 257/16/290
f 276/270/291 258/252/291 264/250/291 286/271/291
f 286/271/292 264/250/292 260/247/292 278/260/292
f 278/260/293 260/247/293 257/16/293 273/257/293
f 291/281/294 275/267/294 284/265/294 298/282/294
f 298/282/295 284/265/295 280/264/295 293/274/295
f 293/274/296 280/264/296 274/263/296 289/74/296
f 302/366/297 290/277/297 296/275/297 304/366/297
f 304/366/298 296/275/298 292/272/298 303/380/298
f 303/380/299 292/272/299 289/74/299 301/366/299
f 307/291/300 302/366/300 304/366/300 314/292/300
f 314/292/301 304/366/301 303/380/301 309/285/301
f 309/285/302 303/380/302 301/366/302 305/101/302
f 320/306/303 306/288/303 312/286/303 330/307/303
f 330/307/304 312/286/304 308/283/304 322/296/304
f 322/296/305 308/283/305 305/101/305 317/293/305
f 335/236/306 319/303/306 328/301/306 342/317/306
f 342/317/307 328/301/307 324/300/307 337/310/307
f 337/310/308 324/300/308 318/299/308 333/159/308
f 269/373/309 334/313/309 340/311/309 271/381/309
f 271/381/310 340/311/310 336/308/310 272/382/310
f 272/382/311 336/308/311 333/159/311 270/373/311
f 229/220/312 320/306/312 331/221/312 233/221/312
f 233/221/244 331/221/244 327/304/244 237/224/244
f 237/224/313 327/304/313 319/303/313 230/226/313
f 334/313/252 246/242/252 252/240/252 339/314/252
f 339/314/253 252/240/253 248/237/253 343/315/253
f 343/315/254 248/237/254 245/236/254 335/236/254
f 306/288/234 218/215/234 224/213/234 311/289/234
f 311/289/235 224/213/235 220/210/235 315/210/235
f 315/210/236 220/210/236 217/209/236 307/291/236
f 185/182/314 276/270/314 287/183/314 189/183/314
f 189/183/211 287/183/211 283/268/211 193/186/211
f 193/186/315 283/268/315 275/267/315 186/188/315
f 290/277/219 202/204/219 208/202/219 295/278/219
f 295/278/220 208/202/220 204/199/220 299/279/220
f 299/279/221 204/199/221 201/198/221 291/281/221
f 258/252/201 170/177/201 176/175/201 263/175/201
f 263/175/202 176/175/202 172/172/202 267/253/202
f 267/253/203 172/172/203 169/171/203 259/255/203
f 346/16/316 349/358/316 351/358/316 348/383/316
f 348/384/317 351/385/317 352/386/317 347/387/317
f 347/387/318 352/386/318 350/388/318 345/389/318
f 353/318/319 346/16/319 348/383/319 356/319/319
f 356/322/320 348/384/320 347/387/320 360/323/320
f 360/323/321 347/387/321 345/389/321 354/326/321
f 366/74/322 355/330/322 363/333/322 368/390/322
f 368/391/323 363/328/323 359/327/323 367/392/323
f 367/392/324 359/327/324 354/326/324 365/326/324
f 370/366/325 366/74/325 368/390/325 372/366/325
f 372/393/326 368/391/326 367/392/326 371/394/326
f 371/394/327 367/392/327 365/326/327 369/395/327
f 374/101/328 370/366/328 372/366/328 376/396/328
f 376/397/329 372/393/329 371/394/329 375/398/329
f 375/398/330 371/394/330 369/395/330 373/399/330
f 377/334/331 374/101/331 376/396/331 380/335/331
f 380/338/332 376/397/332 375/398/332 384/339/332
f 384/339/333 375/398/333 373/399/333 378/342/333
f 390/159/334 379/346/334 387/349/334 392/400/334
f 392/401/335 387/344/335 383/343/335 391/402/335
f 391/402/336 383/343/336 378/342/336 389/403/336
f 349/373/337 390/159/337 392/400/337 351/373/337
f 351/385/338 392/401/338 391/402/338 352/386/338
f 352/386/339 391/402/339 389/403/339 350/388/339
f 273/257/340 353/318/340 357/321/340 277/258/340
f 277/258/341 357/321/341 362/331/341 281/261/341
f 281/261/342 362/331/342 355/330/342 274/263/342
f 379/346/343 318/299/343 325/297/343 386/347/343
f 386/347/344 325/297/344 321/294/344 381/337/344
f 381/337/345 321/294/345 317/293/345 377/334/345
f 1/354/346 9/1/346 33/28/346 61/59/346 85/363/346 93/86/346 117/113/346 145/144/346
f 2/350/347 5/355/347 23/26/347 10/9/347
f 147/156/348 158/165/348 5/370/348 2/367/348
f 21/16/349 6/358/349 181/358/349 171/16/349
f 6/373/350 157/159/350 247/159/350 181/373/350
f 11/13/351 22/22/351 48/57/351 34/36/351
f 45/43/352 21/16/352 171/16/352 188/196/352
f 35/40/353 47/53/353 75/84/353 62/67/353
f 73/74/354 46/49/354 187/192/354 203/74/354
f 63/71/355 74/80/355 90/364/355 86/359/355
f 89/366/356 73/74/356 203/74/356 214/366/356
f 86/359/357 90/364/357 107/111/357 94/94/357
f 105/101/358 89/366/358 214/366/358 219/101/358
f 95/98/359 106/107/359 132/142/359 118/121/359
f 129/128/360 105/101/360 219/101/360 232/234/360
f 119/125/361 131/138/361 159/169/361 146/152/361
f 157/159/362 130/134/362 231/230/362 247/159/362
f 169/171/347 182/358/347 269/358/347 259/255/347
f 185/182/351 170/177/351 258/252/351 276/270/351
f 182/373/348 246/242/348 334/313/348 269/373/348
f 201/198/353 186/188/353 275/267/353 291/281/353
f 213/366/355 202/204/355 290/277/355 302/366/355
f 217/209/357 213/366/357 302/366/357 307/291/357
f 229/220/359 218/215/359 306/288/359 320/306/359
f 245/236/361 230/226/361 319/303/361 335/236/361
f 257/16/363 270/358/363 349/358/363 346/16/363
f 273/257/364 257/16/364 346/16/364 353/318/364
f 270/373/365 333/159/365 390/159/365 349/373/365
f 289/74/366 274/263/366 355/330/366 366/74/366
f 301/366/367 289/74/367 366/74/367 370/366/367
f 305/101/368 301/366/368 370/366/368 374/101/368
f 317/293/369 305/101/369 374/101/369 377/334/369
f 333/159/370 318/299/370 379/346/370 390/159/370
f 345/389/371 350/388/371 389/403/371 378/342/371 373/399/371 369/395/371 365/326/371 354/326/371
